<svg width="152" height="36" viewBox="0 0 152 36" fill="none" xmlns="http://www.w3.org/2000/svg">
<path d="M66.132 8.928H61.848C61.56 5.94 59.724 4.428 56.268 4.428C54.72 4.428 53.532 4.752 52.668 5.4C51.804 6.048 51.372 6.912 51.372 7.992C51.372 9.036 51.66 9.756 52.308 10.116C52.956 10.512 54.36 10.98 56.556 11.52C57.132 11.7 57.564 11.808 57.888 11.88C60.732 12.6 62.676 13.248 63.72 13.824C65.988 15.048 67.14 16.956 67.14 19.548C67.14 20.7 66.924 21.708 66.564 22.608C66.168 23.544 65.664 24.3 65.016 24.912C64.368 25.524 63.576 26.028 62.712 26.424C61.812 26.856 60.876 27.144 59.94 27.324C58.968 27.504 57.96 27.576 56.952 27.576C53.712 27.576 51.12 26.82 49.14 25.272C47.124 23.76 46.152 21.492 46.152 18.504H50.58C50.58 20.376 51.192 21.78 52.416 22.68C53.64 23.58 55.224 24.012 57.204 24.012C58.932 24.012 60.264 23.688 61.236 22.968C62.208 22.248 62.712 21.276 62.712 19.98C62.712 19.188 62.424 18.504 61.92 18C61.416 17.496 60.84 17.1 60.264 16.884C59.652 16.668 58.608 16.38 57.132 15.984C56.952 15.948 56.808 15.912 56.736 15.876C53.532 15.084 51.444 14.4 50.436 13.86C48.348 12.78 47.232 11.124 47.088 8.856V8.352C47.088 6.084 47.916 4.284 49.644 2.916C51.372 1.548 53.676 0.864 56.556 0.864C59.328 0.864 61.596 1.548 63.36 2.844C65.088 4.176 66.024 6.192 66.132 8.928Z" fill="#2B4E52"/>
<path d="M77.8838 8.496V10.332H74.0678V22.068C74.0678 22.716 74.0678 23.148 74.1038 23.4C74.1038 23.652 74.1758 23.94 74.3198 24.3C74.4638 24.66 74.6798 24.876 75.0398 24.984C75.3638 25.128 75.8318 25.164 76.4078 25.164C76.7318 25.164 77.2358 25.128 77.8838 25.056V27C77.1278 27.108 76.4798 27.144 75.9038 27.144C73.6718 27.144 72.3758 26.46 72.0518 25.02C71.9078 24.444 71.8358 23.076 71.8358 20.952V10.332H68.5598V8.496H71.8358V2.844H74.0678V8.496H77.8838ZM96.0961 8.496V27H94.0081V23.58C92.6401 26.244 90.4441 27.54 87.4921 27.54C85.5121 27.54 83.9641 27 82.8121 25.848C81.6601 24.696 81.1201 23.04 81.1201 20.808V8.496H83.3881V19.836C83.3881 21.78 83.7121 23.22 84.4321 24.156C85.1521 25.092 86.3401 25.56 88.0681 25.56C89.8681 25.56 91.2721 24.912 92.3161 23.616C93.3241 22.32 93.8641 20.664 93.8641 18.72V8.496H96.0961ZM116.764 1.368V27H114.712V23.364C114.136 24.732 113.272 25.776 112.12 26.496C110.968 27.216 109.6 27.54 108.052 27.54C105.46 27.54 103.444 26.676 101.932 24.912C100.42 23.148 99.7 20.772 99.7 17.748C99.7 14.796 100.42 12.42 101.932 10.62C103.444 8.856 105.46 7.956 107.98 7.956C111.184 7.956 113.38 9.288 114.568 11.952V1.368H116.764ZM108.232 9.828C106.324 9.828 104.812 10.548 103.66 11.988C102.508 13.428 101.968 15.336 101.968 17.712C101.968 20.16 102.508 22.104 103.66 23.544C104.812 24.984 106.324 25.704 108.268 25.704C110.212 25.704 111.76 25.02 112.912 23.58C114.064 22.176 114.64 20.232 114.64 17.748C114.64 15.552 114.1 13.68 113.02 12.132C111.94 10.62 110.32 9.828 108.232 9.828ZM123.468 1.26V4.968H121.2V1.26H123.468ZM123.468 8.496V27H121.2V8.496H123.468ZM135.44 1.332V3.24C134.936 3.168 134.432 3.132 133.928 3.132C133.388 3.132 132.956 3.204 132.596 3.312C132.236 3.456 131.984 3.6 131.804 3.744C131.624 3.888 131.48 4.176 131.408 4.536C131.336 4.896 131.264 5.22 131.264 5.436C131.264 5.688 131.264 6.084 131.264 6.66V8.496H134.972V10.332H131.264V27H128.996V10.332H125.828V8.496H128.996V6.372C128.996 4.644 129.32 3.348 130.04 2.484C130.76 1.62 131.984 1.188 133.712 1.188C134.144 1.188 134.72 1.26 135.44 1.332ZM151.525 8.496L144.253 27.684C143.317 30.132 142.525 31.824 141.877 32.688C141.193 33.588 140.149 34.02 138.781 34.02C138.169 34.02 137.521 33.984 136.801 33.84V31.86C137.449 32.04 137.989 32.112 138.421 32.112C139.321 32.112 140.005 31.788 140.473 31.104C140.941 30.456 141.481 29.268 142.093 27.612C142.093 27.54 142.129 27.468 142.165 27.432C142.165 27.396 142.201 27.324 142.237 27.252C142.237 27.18 142.273 27.144 142.309 27.072C142.309 27 142.345 26.928 142.381 26.856L134.929 8.496H137.413L142.417 21.24C142.597 21.744 142.957 22.86 143.533 24.516C144.145 22.5 144.505 21.312 144.649 20.988L149.221 8.496H151.525Z" fill="black"/>
<rect x="0.5" y="0.5" width="35" height="35" stroke="black"/>
<path d="M22.1887 23.079C24.5228 23.079 26.415 21.1869 26.415 18.8528C26.415 16.5187 24.5228 14.6265 22.1887 14.6265C19.8546 14.6265 17.9625 16.5187 17.9625 18.8528C17.9625 21.1869 19.8546 23.079 22.1887 23.079Z" stroke="#2B4E52" stroke-linecap="round" stroke-linejoin="round"/>
<path d="M26.415 18.8527C26.415 12.477 22.4858 10.4753 19.0013 10.4753C15.5168 10.4753 10.4753 12.2542 10.4753 18.8527C10.4753 25.4512 13.8113 29.973 22.1895 29.973C30.1223 29.973 34.1258 23.7457 34.1258 18.8527C34.125 14.1817 33.4328 1.875 18.135 1.875C4.91475 1.875 1.875 13.44 1.875 18.8527C2.13777 23.9547 4.12437 28.8163 7.50975 32.6422" stroke="#2B4E52" stroke-linecap="round" stroke-linejoin="round"/>
</svg>
